Coordinates
version=1
nRows=8
nColumns=33
inDegrees=yes

Units are S.I. units (second, meters, Newtons, ...)
Angles are in degrees.

endheader
time	ground_thorax_rot_x	ground_thorax_rot_y	ground_thorax_rot_z	ground_thorax_tx	ground_thorax_ty	ground_thorax_tz	clav_prot_r	clav_elev_r	scapula_abduction_r	scapula_elevation_r	scapula_upward_rot_r	scapula_winging_r	shoulder_elv_r	plane_of_elev_r	axial_rot_r	elbow_flexion_r	pro_sup_r	wrist_flex_r	wrist_dev_r	clav_prot_l	clav_elev_l	scapula_abduction_l	scapula_elevation_l	scapula_upward_rot_l	scapula_winging_l	shoulder_elv_l	plane_of_elev_l	axial_rot_l	elbow_flexion_l	pro_sup_l	wrist_flex_l	wrist_dev_l
      4.34000000	    -39.62429707	    -12.31695542	     12.49625915	   -138.50546348	    794.77874754	      3.13351060	      8.73328293	    -45.00000000	     41.50481622	    -45.00000000	    -33.77252623	   2786.82007423	  -2269.42680473	    147.20953863	   -140.88239227	   1090.50879260	    352.42282550	     14.83111144	     13.62643515	     17.78966933	     42.45696754	    -43.00972211	    -45.00000000	    -31.97408684	   -997.54549389	   2058.21944436	    136.42471769	    179.99999979	   1088.62480248	    360.65596931	     11.66745975	    -16.97262231
      4.35000000	    -39.64155908	    -12.34345409	     12.40827612	   -133.63319113	    792.25282667	      2.94811657	      8.71363031	    -45.00000000	     41.72794779	    -45.00000000	    -33.15635158	   2787.28108183	  -2269.79357439	    147.30092849	   -141.47468350	   1090.24493108	    353.58916951	     14.71962285	     13.74699763	     17.98911733	     42.70239391	    -43.26927843	    -45.00000000	    -31.53412617	   -997.75802665	   2057.81446054	    136.38362586	    179.99999979	   1088.37724823	    362.14102098	     11.69245654	    -17.01953696
      4.36000000	    -39.67248846	    -12.23409712	     12.23144297	   -128.86432970	    789.85502792	      2.79888958	      8.69686567	    -45.00000000	     41.95493174	    -45.00000000	    -32.40719246	   2787.69575344	  -2270.19025434	    147.36799748	   -142.37587761	   1089.94015671	    355.35135928	     14.64868653	     13.92889794	     18.22081046	     42.96144504	    -43.59161975	    -45.00000000	    -31.00000733	   -997.97735383	   2057.38164779	    136.40787572	    179.99999979	   1088.17609652	    363.81897382	     11.67988669	    -17.10254170
      4.37000000	    -39.67128790	    -11.69458071	     11.62230095	   -124.23502224	    787.61300979	      2.68626886	      8.62950042	    -45.00000000	     42.47787340	    -45.00000000	    -30.88101329	   2787.96197185	  -2270.59515457	    147.43292787	   -143.78771749	   1089.62517544	    357.97640184	     14.63075786	     14.23672499	     18.57845754	     43.09594619	    -44.09685361	    -44.68309760	    -29.77877175	   -997.98726242	   2056.89902417	    136.58297383	    179.99999979	   1087.98603851	    365.77948981	     11.64397100	    -17.22042915
      4.38000000	    -39.45290619	    -10.80754062	     10.58037579	   -119.78758341	    785.54620617	      2.61661217	      8.66574630	    -45.00000000	     43.39374267	    -45.00000000	    -28.35810676	   2787.93699755	  -2270.92574124	    147.44427035	   -145.26769594	   1089.25437059	    361.30162482	     14.71835406	     14.48439059	     18.31711165	     42.99917548	    -44.85679454	    -43.63831792	    -27.77736832	   -997.49882872	   2056.52112624	    136.91599278	    179.99999979	   1087.76379557	    368.13221619	     11.76817714	    -17.35574406
      4.39000000	    -39.29586533	    -11.19048030	     10.88387931	   -115.53458737	    783.66929794	      2.58766995	      8.82032029	    -45.00000000	     43.78217978	    -45.00000000	    -28.69389387	   2788.30861001	  -2270.96231334	    147.33981554	   -145.81181685	   1089.18371289	    363.78269102	     14.96104794	     14.31920632	     18.25112193	     42.30433655	    -45.00000000	    -43.35859953	    -28.28164827	   -997.05869435	   2056.33006846	    136.17476573	    179.99999979	   1087.36472327	    369.87109058	     11.76625774	    -17.40591575
      4.40000000	    -39.16663808	     -9.75470027	      9.02107717	   -111.51566278	    782.01594040	      2.61873514	      8.92412472	    -45.00000000	     45.00000000	    -45.00000000	    -24.34174730	   2788.00449506	  -2271.53327513	    147.42647362	   -147.15203727	   1088.75995343	    367.85771353	     15.06395138	     14.81405265	     16.60718302	     42.70949200	    -45.00000000	    -42.34189222	    -24.41636414	   -996.96464382	   2055.97921349	    136.76644832	    179.99999979	   1087.19782787	    372.59634805	     11.94520891	    -17.61293578
      4.41000000	    -39.01103445	     -9.78105395	      9.15615854	   -107.72708778	    780.60647550	      2.71494087	      8.90407243	    -45.00000000	     45.00000000	    -45.00000000	    -23.90105112	   2788.46787926	  -2271.54583052	    147.63515420	   -147.65406995	   1088.63700093	    370.66077123	     15.30479208	     14.86113872	     16.98634286	     42.27519705	    -45.00000000	    -41.94860426	    -24.06149619	   -997.23265971	   2055.97771564	    136.84885999	    179.99999979	   1087.04561387	    374.45891860	     11.87343903	    -17.77604764
